<svg width="32" height="32" viewBox="0 0 32 32" fill="none" xmlns="http://www.w3.org/2000/svg">
<rect x="0.5" y="0.5" width="31" height="31" stroke="black"/>
<path fill-rule="evenodd" clip-rule="evenodd" d="M16.6812 11.7275V13.9912C17.1551 13.2676 17.8083 12.68 18.5768 12.2862C19.3452 11.8924 20.2025 11.7058 21.0645 11.7447C25.671 11.7447 26.6666 14.6248 26.6666 18.3714V26H22.3999V19.2377C22.3999 17.6249 22.0742 15.5497 19.5626 15.5497C17.1263 15.5497 16.711 17.3052 16.711 19.1178V26H12.4572V11.7275H16.6812Z" fill="black"/>
<path fill-rule="evenodd" clip-rule="evenodd" d="M9.59992 8.14087C9.59992 8.56429 9.4748 8.97821 9.24039 9.33027C9.00597 9.68234 8.67279 9.95674 8.28298 10.1188C7.89316 10.2808 7.46422 10.3232 7.05039 10.2406C6.63657 10.158 6.25644 9.9541 5.95809 9.65469C5.65974 9.35529 5.45656 8.97382 5.37424 8.55853C5.29193 8.14324 5.33418 7.71279 5.49564 7.32159C5.65711 6.9304 5.93054 6.59604 6.28137 6.3608C6.63219 6.12556 7.04465 6 7.46659 6C8.03238 6 8.575 6.22555 8.97508 6.62705C9.37516 7.02854 9.59992 7.57308 9.59992 8.14087Z" fill="black"/>
<path d="M9.59992 11.7447H5.33325V26H9.59992V11.7447Z" fill="black"/>
</svg>
